<?xml version="1.0" standalone="no"?>
<!DOCTYPE svg PUBLIC "-//W3C//DTD SVG 20010904//EN"
 "http://www.w3.org/TR/2001/REC-SVG-20010904/DTD/svg10.dtd">
<svg version="1.0" xmlns="http://www.w3.org/2000/svg"
 width="1536.000000pt" height="1536.000000pt" viewBox="0 0 1536.000000 1536.000000"
 preserveAspectRatio="xMidYMid meet">

<g transform="translate(0.000000,1536.000000) scale(0.100000,-0.100000)"
fill="#000000" stroke="none">
<path d="M5950 14408 c-30 -4 -91 -10 -135 -13 -125 -10 -361 -75 -490 -135
-33 -15 -71 -31 -85 -35 -14 -4 -35 -15 -48 -23 -23 -15 -35 -22 -121 -70 -23
-12 -41 -27 -41 -32 0 -5 -9 -12 -20 -15 -11 -4 -32 -17 -45 -31 -13 -13 -28
-24 -34 -24 -5 0 -24 -12 -42 -27 -48 -40 -249 -241 -249 -249 0 -4 -23 -34
-51 -66 -27 -32 -47 -62 -44 -68 3 -5 2 -10 -4 -10 -5 0 -31 -33 -57 -72 -25
-40 -53 -77 -60 -81 -8 -4 -14 -13 -14 -18 0 -6 4 -8 9 -5 5 3 -6 -24 -24 -62
-47 -94 -70 -146 -67 -154 1 -4 -5 -22 -12 -40 -33 -77 -66 -220 -76 -328 -6
-63 -15 -131 -19 -150 -4 -19 -6 -63 -3 -96 3 -39 0 -64 -7 -68 -18 -11 -13
-25 7 -19 17 4 20 20 26 134 8 157 28 312 54 405 59 211 212 528 245 507 6 -3
7 -1 3 6 -15 23 208 301 241 301 6 0 15 9 18 21 5 14 12 18 23 14 9 -3 13 -3
10 1 -4 3 -1 12 5 19 9 10 15 10 26 2 11 -10 13 -8 7 10 -6 19 3 30 54 70 34
26 77 57 95 68 18 11 54 33 79 48 26 15 52 25 59 21 6 -4 9 -3 4 1 -25 28 438
212 475 189 6 -4 13 -1 17 5 22 35 462 64 631 41 99 -13 170 -31 164 -42 -7
-11 9 -10 40 2 17 6 26 6 26 0 0 -6 -9 -10 -20 -10 -11 0 -20 -4 -20 -10 0
-13 6 -13 30 0 25 13 78 2 58 -12 -9 -7 -4 -8 15 -5 56 9 314 -107 425 -190
17 -13 37 -21 44 -17 6 4 8 3 5 -3 -3 -5 23 -35 59 -66 113 -98 183 -208 240
-377 l29 -85 0 -1297 c0 -713 -2 -1299 -5 -1301 -3 -3 -714 -9 -1580 -12 -866
-4 -1576 -9 -1578 -10 -1 -1 -2 -499 -2 -1106 l0 -1104 -691 -2 c-404 -2 -714
-7 -747 -13 -120 -21 -155 -30 -225 -61 -39 -17 -74 -35 -77 -39 -3 -4 -20
-15 -38 -24 -71 -37 -213 -173 -268 -259 -110 -169 -152 -299 -155 -475 -1
-86 1 -95 26 -132 16 -24 39 -43 54 -46 14 -3 36 -10 48 -16 38 -18 203 -15
244 4 69 33 111 101 134 217 16 80 104 188 185 231 97 50 100 50 828 53 l682
2 0 -446 c0 -369 2 -449 14 -465 14 -19 43 -19 1571 -21 1174 -1 1560 -5 1571
-14 12 -10 14 -316 14 -2127 l0 -2115 -138 5 c-129 4 -141 6 -192 34 -63 34
-119 101 -146 178 -17 47 -19 100 -24 666 -5 580 -6 617 -24 646 -34 57 -111
92 -203 93 -86 1 -224 -49 -275 -99 -37 -36 -38 -39 -43 -121 -2 -46 -7 -248
-11 -449 -4 -201 -7 -381 -9 -400 -1 -19 2 -105 5 -190 13 -282 58 -423 190
-598 157 -209 420 -322 745 -322 l127 0 -5 -323 c-4 -284 -7 -330 -25 -387
-27 -87 -65 -170 -106 -231 -30 -45 -156 -183 -174 -191 -22 -9 -122 -85 -126
-95 -7 -18 42 5 74 34 14 13 28 23 33 23 12 0 147 132 142 139 -2 4 12 20 32
37 19 16 39 38 44 49 5 11 18 34 29 50 26 39 25 38 53 123 l25 73 11 -32 c6
-18 9 -34 6 -37 -2 -2 2 -17 11 -33 8 -16 14 -32 14 -36 0 -13 50 -106 68
-128 9 -11 40 -35 67 -54 48 -32 53 -33 120 -27 49 4 78 12 95 27 14 11 33 22
43 26 9 3 17 9 17 13 0 4 13 23 30 41 16 19 35 48 41 64 6 17 22 53 35 82 13
28 24 58 24 65 0 7 10 -7 22 -32 25 -53 27 -55 33 -48 7 7 -15 68 -25 68 -4 0
-6 9 -3 20 3 11 1 20 -3 20 -13 0 -13 -10 -17 1110 -1 575 -6 1059 -10 1075
-5 22 -5 25 2 10 6 -13 10 303 10 868 1 488 -3 887 -7 887 -5 0 -5 21 -1 48 4
26 7 589 6 1252 0 663 -4 1162 -7 1110 -4 -52 -4 10 -2 138 3 128 5 1379 6
2780 l1 2547 28 88 c15 48 34 99 43 112 9 13 15 27 14 30 -1 3 12 30 29 60 42
74 139 185 189 215 27 16 40 30 36 39 -3 11 1 10 15 -3 18 -16 19 -16 17 1 -1
12 5 17 18 15 14 -3 17 1 13 12 -5 12 0 16 17 16 12 0 33 12 47 26 13 15 58
42 99 61 41 18 82 38 92 43 15 8 128 40 143 40 3 0 3 -5 -1 -12 -5 -7 -3 -8 5
-4 7 5 10 11 6 14 -7 8 72 32 106 32 14 0 29 4 35 9 21 19 215 41 370 41 178
0 308 -13 369 -37 41 -16 62 -21 105 -22 20 -1 22 -3 10 -11 -11 -7 -6 -8 18
-4 21 4 32 3 32 -5 0 -7 4 -9 10 -6 22 14 335 -119 348 -147 2 -5 7 -8 12 -8
5 0 21 -5 37 -11 22 -8 25 -12 13 -21 -12 -8 -11 -9 3 -4 11 4 31 -2 47 -14
15 -11 31 -20 34 -20 3 0 14 -7 23 -15 10 -8 42 -33 71 -55 28 -23 52 -48 52
-56 0 -8 3 -13 8 -12 4 2 17 -4 30 -13 15 -11 20 -22 16 -35 -4 -14 -3 -16 4
-5 11 15 33 7 28 -12 -1 -7 -1 -8 2 -4 7 14 31 -14 25 -30 -5 -11 -1 -14 13
-10 14 4 34 -12 79 -65 91 -107 105 -130 92 -154 -10 -18 -9 -18 8 -4 10 8 16
10 12 3 -5 -7 1 -16 12 -22 48 -26 205 -340 186 -371 -3 -5 0 -10 8 -10 12 0
69 -165 82 -236 19 -110 35 -248 39 -339 4 -106 5 -110 28 -113 12 -2 79 -15
148 -28 69 -14 135 -28 148 -30 118 -22 453 -162 511 -213 13 -12 30 -21 38
-21 8 0 11 -4 8 -10 -3 -5 3 -10 15 -10 43 0 304 -195 280 -210 -8 -5 -1 -11
19 -18 17 -6 30 -17 29 -24 -2 -7 2 -12 9 -11 8 2 10 -4 6 -14 -5 -13 -2 -15
11 -10 9 4 15 3 11 -2 -5 -10 12 -25 30 -26 6 -1 9 -6 8 -13 -2 -7 3 -12 10
-12 7 0 27 -17 43 -37 16 -21 38 -47 50 -58 80 -77 274 -441 305 -573 6 -26
17 -60 24 -77 7 -16 25 -86 40 -155 22 -103 28 -159 32 -320 6 -221 -5 -361
-40 -500 -30 -116 -85 -295 -104 -329 -19 -37 -17 -71 5 -71 10 0 28 -7 41
-16 13 -9 60 -35 105 -57 44 -22 120 -66 168 -98 78 -53 104 -71 142 -104 143
-123 146 -125 146 -102 0 8 -12 20 -26 27 -14 8 -32 26 -41 41 -9 15 -28 33
-42 41 -14 7 -51 31 -81 54 -49 37 -108 76 -165 111 -11 6 -34 18 -51 26 -17
8 -35 20 -38 26 -4 6 -12 9 -17 5 -5 -3 -28 8 -51 25 -23 17 -50 31 -60 31
-30 0 -31 24 -5 86 35 83 67 180 67 203 0 11 4 22 9 26 6 3 10 13 10 23 0 9 7
44 15 77 9 33 18 83 20 110 3 28 8 73 11 102 10 81 11 311 2 383 -20 173 -62
354 -88 387 -7 7 -5 13 3 16 11 5 11 7 0 15 -7 5 -15 23 -17 40 -2 17 -13 49
-24 71 -12 22 -21 47 -21 56 0 8 -4 15 -10 15 -5 0 -10 6 -10 13 0 34 -171
336 -222 390 -24 26 -43 48 -121 139 -26 31 -62 66 -80 77 -18 12 -43 36 -57
56 -14 19 -33 35 -42 35 -10 0 -18 7 -18 15 0 8 -3 14 -7 13 -16 -3 -43 15
-36 25 3 6 1 7 -5 3 -7 -4 -12 -2 -12 3 0 6 -3 10 -7 9 -9 -3 -47 23 -91 60
-15 13 -52 36 -82 51 -30 14 -72 37 -92 49 -21 13 -42 21 -46 18 -5 -3 -17 3
-27 14 -10 11 -23 20 -29 20 -6 0 -29 9 -51 20 -71 35 -258 97 -314 104 -30 4
-64 12 -75 19 -12 6 -25 11 -31 12 -53 5 -153 18 -167 21 -13 4 -17 24 -22
112 -9 157 -36 325 -67 426 -16 49 -26 93 -22 99 3 6 1 7 -5 3 -7 -4 -12 -1
-12 9 0 19 -41 125 -89 228 -17 37 -31 70 -31 74 0 3 -8 13 -18 22 -22 19 -46
61 -39 68 8 7 -37 50 -47 45 -5 -3 -7 1 -4 8 2 7 -11 28 -29 48 -17 19 -31 40
-30 46 1 6 -4 10 -10 9 -7 -2 -13 2 -13 8 0 13 -24 40 -95 110 -27 27 -45 49
-40 49 6 0 -6 8 -25 18 -19 10 -34 23 -33 30 2 7 -2 12 -8 12 -7 0 -32 17 -57
38 -25 20 -56 44 -70 53 -13 9 -23 19 -23 23 1 3 0 5 -1 4 -4 -4 -81 43 -93
56 -13 15 -243 128 -324 160 -35 14 -79 28 -97 32 -19 3 -37 10 -39 15 -3 4
-27 11 -53 15 -26 3 -54 10 -62 15 -9 4 -36 10 -60 13 -25 3 -72 10 -105 16
-80 14 -358 14 -476 0 -96 -12 -288 -53 -324 -70 -56 -25 -119 -50 -128 -50
-19 0 -232 -108 -269 -136 -63 -49 -93 -69 -98 -67 -3 1 -15 -12 -25 -28 -11
-16 -28 -32 -38 -35 -10 -3 -16 -8 -14 -11 3 -2 -10 -20 -29 -40 -19 -19 -34
-38 -34 -42 0 -5 -9 -18 -20 -31 -11 -12 -18 -26 -15 -30 3 -4 -7 -20 -20 -34
-14 -15 -27 -40 -30 -57 -5 -26 -13 -51 -41 -124 -4 -11 -8 -23 -8 -27 -1 -4
-6 -12 -13 -19 -9 -9 -15 -3 -27 26 -23 54 -46 122 -62 183 -8 29 -21 66 -29
83 -15 27 -19 29 -79 29 -34 0 -104 -3 -154 -6 -91 -7 -91 -7 -116 -43 -23
-35 -53 -129 -64 -200 -3 -24 -7 -30 -14 -20 -6 9 -7 3 -3 -18 4 -22 3 -33 -5
-33 -6 0 -10 6 -9 13 4 29 -2 42 -11 22 -9 -20 -9 -20 -9 0 -1 32 -37 121 -70
175 -17 28 -31 54 -31 59 0 5 -7 14 -15 21 -8 6 -13 15 -12 19 4 11 -19 35
-165 173 -16 15 -45 35 -64 44 -19 9 -34 20 -34 25 0 5 -9 9 -20 9 -11 0 -20
7 -20 15 0 8 -6 15 -14 15 -8 0 -16 3 -18 8 -1 4 -55 29 -118 56 -63 26 -129
54 -147 62 -17 8 -35 14 -41 14 -5 0 -38 9 -73 21 -35 11 -75 22 -89 24 -309
45 -373 49 -500 33z m1283 -4025 c-7 -2 -19 -2 -25 0 -7 3 -2 5 12 5 14 0 19
-2 13 -5z m157 -1283 l0 -1269 -182 -3 c-101 -2 -643 -4 -1205 -5 -562 -1
-1034 -5 -1050 -8 -23 -4 -24 -4 -8 4 15 7 8 10 -33 10 -29 1 -62 6 -73 11
-19 10 -19 32 -21 918 -1 499 -4 873 -8 832 -4 -47 -7 16 -8 173 -1 163 1 246
8 242 6 -4 10 36 10 114 0 66 -4 122 -9 125 -8 5 -8 13 4 89 l6 37 1284 0
1284 0 1 -1270z m-2583 1068 c-3 -8 -6 -5 -6 6 -1 11 2 17 5 13 3 -3 4 -12 1
-19z m0 -1570 c-2 -24 -4 -5 -4 42 0 47 2 66 4 43 2 -24 2 -62 0 -85z m0 -355
c-2 -32 -3 -8 -3 52 0 61 1 87 3 58 2 -29 2 -78 0 -110z m0 -155 c-3 -7 -5 -2
-5 12 0 14 2 19 5 13 2 -7 2 -19 0 -25z m0 -75 c-3 -10 -5 -2 -5 17 0 19 2 27
5 18 2 -10 2 -26 0 -35z m106 -200 c-7 -2 -19 -2 -25 0 -7 3 -2 5 12 5 14 0
19 -2 13 -5z m3054 -495 c-2 -24 -4 -5 -4 42 0 47 2 66 4 43 2 -24 2 -62 0
-85z m0 -380 c-1 -46 -3 -9 -3 82 0 91 2 128 3 83 2 -46 2 -120 0 -165z m0
-460 c-1 -46 -3 -9 -3 82 0 91 2 128 3 83 2 -46 2 -120 0 -165z m0 -1200 c-1
-73 -3 -16 -3 127 0 143 2 203 3 133 2 -70 2 -187 0 -260z m0 -225 c-2 -16 -4
-5 -4 22 0 28 2 40 4 28 2 -13 2 -35 0 -50z m0 -340 c-1 -43 -3 -10 -3 72 0
83 2 118 3 78 2 -40 2 -107 0 -150z m0 -590 c-1 -82 -3 -15 -3 147 0 162 2
229 3 148 2 -82 2 -214 0 -295z m-817 -2777 c0 -2 -8 -10 -17 -17 -16 -13 -17
-12 -4 4 13 16 21 21 21 13z"/>
<path d="M4812 9860 c0 -14 2 -19 5 -12 2 6 2 18 0 25 -3 6 -5 1 -5 -13z"/>
<path d="M4811 9694 c0 -11 3 -14 6 -6 3 7 2 16 -1 19 -3 4 -6 -2 -5 -13z"/>
<path d="M8305 14060 c3 -5 8 -10 11 -10 2 0 4 5 4 10 0 6 -5 10 -11 10 -5 0
-7 -4 -4 -10z"/>
<path d="M9255 13415 c-5 -2 -37 -11 -70 -21 -71 -20 -225 -92 -225 -105 0 -5
-5 -9 -11 -9 -10 0 -84 -48 -122 -80 -30 -24 -130 -150 -169 -210 -33 -53 -88
-162 -88 -175 0 -4 -6 -21 -14 -38 -43 -95 -48 -156 -55 -637 -3 -256 -10
-471 -14 -477 -6 -9 -38 -13 -100 -13 -99 0 -154 -17 -191 -58 -17 -20 -18
-36 -14 -239 6 -252 11 -273 67 -274 20 0 260 0 534 1 536 1 554 3 622 54 49
38 98 143 103 223 8 121 -31 203 -115 244 -39 19 -69 23 -201 28 l-156 6 -2
265 c-3 379 9 621 34 688 66 172 169 262 332 293 36 6 85 18 110 26 98 30 158
120 201 301 24 100 -19 163 -134 197 -45 13 -289 21 -322 10z"/>
<path d="M4153 12533 c-18 -2 -33 -9 -33 -16 0 -8 -3 -8 -11 0 -8 8 -22 8 -52
-3 -33 -12 -42 -12 -49 -2 -6 10 -8 10 -8 1 0 -7 -8 -13 -17 -13 -9 0 -30 -4
-47 -10 -17 -5 -78 -24 -136 -40 -58 -17 -114 -35 -125 -40 -11 -5 -49 -21
-85 -37 -36 -15 -66 -31 -68 -35 -2 -4 -11 -8 -20 -9 -9 0 -29 -8 -44 -17 -55
-35 -121 -72 -128 -72 -4 0 -13 -7 -20 -15 -7 -8 -37 -29 -67 -46 -30 -17 -63
-41 -74 -53 -11 -11 -23 -21 -27 -21 -12 0 -262 -238 -262 -248 0 -3 -18 -24
-40 -45 -21 -22 -37 -42 -35 -44 3 -3 -6 -15 -20 -28 -14 -13 -25 -29 -25 -37
0 -7 -5 -13 -11 -13 -5 0 -8 -4 -5 -9 3 -5 -1 -14 -8 -20 -8 -7 -26 -33 -39
-59 -51 -97 -62 -117 -67 -122 -13 -13 -60 -112 -85 -180 -15 -41 -31 -84 -35
-95 -19 -48 -53 -165 -66 -223 -22 -106 -37 -348 -31 -512 5 -142 13 -200 38
-302 27 -112 50 -197 65 -248 8 -25 14 -49 13 -54 0 -5 5 -12 11 -16 6 -4 15
-24 20 -44 7 -31 5 -38 -8 -43 -37 -12 -141 -66 -220 -112 -30 -17 -57 -29
-62 -26 -4 3 -10 -2 -13 -10 -4 -8 -25 -27 -49 -42 -24 -15 -47 -33 -51 -40
-4 -7 -14 -13 -20 -13 -33 0 -265 -227 -357 -349 -14 -19 -35 -43 -47 -54 -13
-11 -23 -25 -23 -31 0 -6 -19 -31 -41 -55 -22 -24 -38 -49 -36 -55 2 -6 -4
-18 -14 -26 -9 -9 -27 -36 -40 -60 -12 -25 -39 -75 -60 -111 -21 -36 -49 -99
-63 -140 -14 -40 -30 -75 -35 -77 -6 -2 -11 -14 -11 -27 0 -12 -7 -28 -15 -35
-9 -7 -13 -15 -11 -18 3 -2 -1 -20 -9 -38 -8 -19 -12 -34 -10 -34 2 0 -1 -15
-6 -32 -68 -221 -83 -341 -81 -638 0 -125 7 -246 16 -310 8 -57 13 -106 11
-108 -2 -3 3 -18 11 -34 9 -17 13 -32 11 -34 -7 -7 31 -145 45 -162 10 -12 10
-14 1 -8 -7 4 -13 2 -13 -3 0 -6 4 -11 9 -11 5 0 15 -26 21 -57 7 -31 18 -63
26 -71 8 -7 14 -20 14 -27 0 -7 16 -48 35 -89 19 -42 35 -80 35 -84 0 -4 6
-14 12 -21 7 -6 13 -15 13 -19 2 -21 135 -235 155 -247 5 -3 10 -16 10 -27 0
-12 3 -18 6 -15 4 4 25 -17 46 -46 21 -28 59 -73 83 -98 25 -26 45 -54 45 -64
0 -9 4 -14 9 -11 4 3 13 -6 20 -20 10 -22 9 -29 -6 -43 -10 -9 -24 -27 -31
-41 -7 -14 -28 -52 -47 -85 -94 -163 -187 -400 -197 -502 -1 -7 -4 -13 -8 -13
-3 0 -12 -28 -19 -62 -7 -35 -13 -64 -13 -65 -47 -165 -40 -868 8 -896 7 -4
11 -14 8 -21 -3 -7 4 -49 16 -92 12 -44 23 -88 25 -99 11 -58 96 -272 134
-335 15 -25 41 -87 41 -99 0 -5 6 -14 14 -18 8 -4 21 -24 30 -43 20 -45 35
-68 73 -114 6 -7 10 -16 7 -19 -3 -2 16 -28 41 -58 25 -29 45 -58 45 -64 0 -6
13 -24 29 -39 16 -16 32 -39 36 -53 4 -16 11 -23 20 -19 8 3 16 -3 20 -13 3
-11 59 -72 125 -137 127 -127 135 -134 195 -179 22 -16 51 -39 65 -52 26 -24
56 -45 149 -102 30 -18 61 -39 68 -47 8 -8 19 -12 24 -8 5 3 8 0 7 -7 -2 -8 7
-14 20 -15 12 -1 31 -9 42 -19 11 -10 20 -15 20 -12 0 4 26 -7 59 -23 32 -16
88 -41 125 -55 36 -14 74 -29 83 -34 10 -5 34 -13 53 -19 19 -5 76 -22 125
-37 133 -40 142 -42 235 -58 218 -39 387 -47 589 -31 89 8 104 7 108 -6 2 -8
11 -28 19 -45 14 -30 14 -29 8 20 -3 28 -9 53 -12 57 -4 3 -47 2 -97 -4 -121
-14 -439 -4 -556 17 -233 43 -578 154 -571 184 1 8 -6 12 -20 10 -26 -2 -34 0
-143 51 -92 42 -227 128 -220 140 3 4 -2 13 -10 20 -10 9 -15 9 -15 1 0 -6 5
-11 12 -11 6 0 8 -3 5 -6 -11 -11 -38 18 -32 34 4 12 3 12 -8 3 -11 -9 -17 -7
-28 6 -12 15 -12 16 3 10 12 -4 15 -2 11 9 -4 11 -9 12 -19 3 -15 -12 -40 3
-126 74 -28 22 -52 35 -59 31 -7 -4 -9 -3 -5 4 3 6 -16 32 -44 58 -30 28 -49
53 -46 61 3 8 2 12 -3 9 -11 -7 -171 162 -216 229 -19 27 -57 82 -84 120 -98
138 -175 290 -164 323 3 12 2 13 -4 4 -7 -9 -14 -2 -26 24 -10 19 -15 39 -12
44 3 5 -1 12 -9 17 -28 16 -78 160 -127 363 -10 41 -22 93 -28 115 -19 76 -31
290 -27 475 6 247 44 488 83 518 13 9 14 12 2 12 -10 1 -9 5 5 15 11 8 14 15
8 15 -7 0 -12 7 -12 15 0 8 7 15 15 15 16 0 20 16 6 24 -8 5 5 57 28 111 20
47 33 80 32 83 -1 1 29 59 65 130 64 122 94 172 121 200 7 7 13 22 13 31 0 19
-35 70 -57 84 -7 4 -13 12 -13 18 0 5 -24 34 -53 64 -72 72 -178 230 -171 253
5 13 4 14 -4 3 -8 -11 -14 -7 -28 20 -10 19 -24 43 -31 54 -26 43 -92 181 -95
200 -2 11 -7 23 -12 27 -5 3 -9 20 -9 37 0 16 -4 28 -9 25 -4 -3 -8 0 -8 7 0
7 -9 32 -21 55 -11 23 -22 55 -25 70 -3 15 -11 41 -18 58 -26 62 -61 276 -45
276 5 0 9 5 9 11 0 6 -6 9 -14 6 -20 -8 -27 81 -27 335 0 218 6 313 22 356 5
13 7 27 4 32 -3 4 2 13 11 20 8 7 13 18 11 24 -7 17 18 138 47 231 45 148 105
281 119 262 6 -8 7 -7 3 6 -7 22 14 68 27 60 6 -3 7 -1 3 5 -30 48 390 613
436 587 7 -5 10 -5 6 0 -10 10 11 37 23 29 5 -3 9 1 9 9 0 7 10 22 23 33 70
61 177 143 212 164 22 13 42 27 45 31 9 12 155 84 168 82 6 0 12 3 12 8 0 5
27 21 60 36 66 29 67 30 29 106 -11 20 -17 37 -13 37 4 0 2 6 -3 13 -5 6 -15
30 -21 52 -6 22 -20 70 -31 107 -60 203 -84 477 -62 718 12 141 43 297 71 365
5 11 20 57 35 102 46 144 193 412 296 538 55 68 80 91 92 87 5 -1 6 1 3 6 -2
4 9 23 25 41 16 19 29 28 29 22 0 -7 4 -10 10 -6 5 3 6 13 3 22 -5 13 -2 15
11 10 9 -4 15 -3 12 2 -14 22 197 191 357 287 145 86 391 185 547 219 41 9 91
20 110 25 19 4 58 11 87 15 30 4 54 13 57 21 3 8 4 13 3 12 -1 0 -17 -3 -34
-5z"/>
<path d="M2530 11149 c0 -5 5 -7 10 -4 6 3 10 8 10 11 0 2 -4 4 -10 4 -5 0
-10 -5 -10 -11z"/>
<path d="M12912 10570 c0 -19 2 -27 5 -17 2 9 2 25 0 35 -3 9 -5 1 -5 -18z"/>
<path d="M12911 10464 c0 -11 3 -14 6 -6 3 7 2 16 -1 19 -3 4 -6 -2 -5 -13z"/>
<path d="M11784 9539 c-2 -4 -22 -9 -44 -12 -55 -7 -136 -48 -182 -92 -26 -25
-39 -48 -47 -85 -14 -66 -15 -1101 -1 -1149 12 -43 64 -98 109 -117 64 -27
161 -29 240 -5 80 24 131 63 164 125 22 41 22 47 25 596 2 305 1 573 -3 596
-4 28 -19 55 -50 91 l-45 51 -81 4 c-45 2 -83 0 -85 -3z"/>
<path d="M13395 9361 c-3 -6 19 -36 51 -69 123 -122 271 -313 258 -333 -4 -8
-3 -9 4 -5 6 3 16 -3 22 -14 6 -11 7 -20 3 -20 -4 0 1 -6 10 -12 21 -17 97
-164 97 -189 0 -10 4 -19 9 -19 5 0 7 -9 4 -20 -4 -16 -2 -19 11 -14 13 5 16
0 16 -26 0 -17 4 -29 9 -26 22 14 132 -338 122 -391 -1 -7 2 -13 7 -13 5 0 19
-66 32 -146 20 -131 22 -168 17 -367 -3 -122 -11 -242 -17 -267 -10 -44 -30
-134 -49 -235 -20 -98 -73 -244 -87 -238 -8 3 -14 1 -14 -5 0 -6 5 -12 10 -14
12 -4 -69 -201 -106 -259 -13 -21 -24 -40 -24 -43 0 -12 -74 -111 -81 -109 -4
2 -6 -3 -3 -11 6 -16 -62 -108 -182 -247 -55 -63 -83 -103 -78 -111 4 -7 23
-36 41 -65 19 -29 32 -57 28 -63 -3 -5 -2 -10 4 -10 38 0 215 -437 227 -563 3
-27 9 -57 14 -66 5 -9 14 -55 20 -101 6 -47 14 -88 17 -93 2 -4 4 -130 4 -280
-1 -202 -5 -292 -17 -352 -8 -44 -18 -93 -21 -109 -4 -21 -8 -25 -15 -15 -6
10 -8 3 -5 -21 4 -36 -10 -110 -38 -195 -32 -99 -67 -185 -74 -185 -4 0 -13
-22 -21 -50 -7 -27 -18 -46 -23 -43 -6 3 -7 1 -3 -5 13 -21 -100 -219 -151
-268 -32 -30 -44 -52 -22 -38 6 3 4 -5 -6 -19 -9 -14 -23 -28 -31 -31 -9 -3
-12 -10 -9 -16 3 -5 3 -10 -2 -10 -4 0 -14 -13 -21 -28 -14 -32 -158 -205
-176 -211 -6 -2 -5 3 3 13 22 26 8 27 -15 1 -12 -13 -17 -26 -12 -27 12 -4
-170 -182 -232 -227 -24 -17 -50 -29 -57 -26 -9 3 -13 -2 -11 -13 2 -11 -3
-16 -14 -14 -9 1 -20 -3 -24 -9 -5 -8 -2 -10 7 -5 8 4 6 1 -5 -6 -10 -7 -50
-37 -90 -65 -86 -64 -243 -145 -265 -138 -9 2 -23 0 -31 -6 -12 -8 -10 -9 8
-4 40 11 23 -2 -42 -33 -78 -37 -330 -122 -363 -122 -13 0 -34 -5 -46 -12 -64
-34 -372 -69 -598 -67 -86 1 -162 -1 -168 -5 -6 -4 -11 -2 -11 3 0 15 -60 14
-64 -1 -2 -7 -11 -61 -20 -120 -22 -139 -63 -261 -141 -419 -52 -105 -171
-300 -194 -319 -3 -3 -19 -23 -36 -45 -16 -22 -34 -45 -40 -51 -5 -6 -26 -28
-45 -50 -51 -55 -155 -144 -171 -144 -7 0 -10 -3 -6 -6 13 -13 -170 -147 -191
-139 -8 3 -10 0 -6 -6 4 -7 0 -9 -14 -5 -11 4 -23 2 -27 -3 -3 -7 0 -8 9 -5
28 11 17 -4 -15 -20 -17 -9 -35 -13 -40 -10 -5 3 -9 -2 -9 -11 0 -9 -4 -13
-10 -10 -5 3 -10 1 -10 -5 0 -7 -8 -9 -20 -5 -13 4 -20 2 -20 -7 0 -24 -195
-111 -275 -123 -5 -1 -18 -5 -27 -10 -10 -4 -24 -5 -32 -2 -8 3 -34 0 -59 -8
-25 -7 -48 -11 -51 -8 -3 4 -6 -1 -6 -10 0 -11 -12 -18 -37 -22 -21 -4 -60
-11 -86 -16 -77 -15 -390 -11 -487 6 -135 24 -190 37 -184 46 3 5 -6 5 -20 -1
-14 -5 -28 -5 -30 -1 -3 5 -19 11 -36 15 -45 8 -262 101 -348 148 -41 22 -77
36 -80 32 -4 -4 -1 -9 6 -11 7 -3 20 -12 29 -21 9 -10 17 -15 17 -13 1 3 39
-14 86 -38 82 -41 217 -97 310 -128 101 -33 330 -63 490 -63 200 0 391 20 398
41 2 5 8 7 13 4 8 -6 109 20 139 35 25 13 104 34 118 31 7 -1 15 5 18 13 3 9
21 18 40 22 19 3 32 9 30 13 -2 3 7 11 20 18 17 8 24 8 24 0 0 -6 6 -4 13 4 6
9 32 24 57 34 25 11 47 22 50 25 10 11 132 80 141 80 6 0 7 5 4 10 -3 6 1 10
10 10 8 0 18 7 21 15 4 8 11 15 18 15 6 0 18 9 26 19 7 11 18 17 23 14 6 -3 7
-2 4 3 -3 6 12 21 34 34 21 14 39 30 39 37 0 7 7 13 15 13 8 0 15 5 15 10 0 6
4 10 10 10 16 0 220 230 220 248 0 4 13 21 28 37 15 17 35 46 44 66 10 19 28
47 42 62 14 15 25 31 24 35 -3 13 34 92 43 92 5 0 8 3 7 8 -1 4 10 33 25 64
15 31 27 60 27 63 0 3 9 25 19 48 19 42 81 280 81 311 0 8 5 26 12 40 9 20 14
23 25 14 15 -12 364 -15 438 -3 22 3 69 10 105 15 183 25 225 32 244 42 12 7
31 11 44 9 13 -1 28 2 35 7 7 5 48 19 92 32 44 12 85 26 90 30 6 4 39 17 75
30 70 25 219 95 288 135 23 14 42 21 42 17 0 -4 4 -2 8 3 8 11 100 75 108 75
16 0 117 76 176 133 10 9 20 17 23 17 8 0 295 279 295 286 0 3 9 15 21 27 45
49 179 230 179 243 0 7 10 24 23 37 32 34 102 165 182 341 50 113 135 400 121
413 -3 4 0 16 8 28 8 12 17 48 20 81 3 32 11 92 17 132 16 100 6 474 -17 619
-9 62 -20 110 -24 108 -5 -3 -8 17 -14 102 0 12 -3 19 -5 17 -3 -2 -19 42 -37
98 -17 57 -40 123 -49 148 -24 65 -97 214 -110 222 -5 4 -6 8 -2 8 4 0 -6 20
-23 44 -16 25 -30 48 -30 52 0 4 -9 18 -21 30 -22 23 -20 51 4 76 7 7 39 45
72 84 33 39 75 89 93 110 18 22 55 77 83 124 28 47 54 87 58 90 3 3 30 57 60
120 30 63 58 124 64 135 27 53 107 304 107 337 0 20 4 39 8 42 10 6 27 79 48
212 12 80 14 150 10 325 -2 123 -7 240 -10 259 -3 19 -8 54 -12 78 -4 23 -10
42 -14 42 -4 0 -5 11 -3 24 9 43 -81 338 -143 473 -19 40 -36 83 -40 97 -3 13
-12 27 -20 30 -8 3 -14 14 -14 24 0 11 -7 25 -15 32 -8 7 -12 16 -9 21 3 5 -2
12 -10 15 -9 3 -13 10 -10 15 3 5 -2 12 -10 15 -9 3 -16 12 -16 19 0 6 -15 32
-32 56 -54 73 -74 103 -81 122 -4 11 -16 21 -27 24 -11 3 -18 9 -15 13 3 4 -6
19 -19 33 -13 14 -23 27 -22 29 0 2 -36 41 -80 86 -50 51 -84 79 -89 73z"/>
<path d="M8265 8892 c-22 -1 -50 -5 -62 -7 l-23 -5 0 -290 0 -290 1068 0 c587
0 1072 -4 1077 -8 13 -9 17 -52 5 -52 -7 0 -10 -331 -10 -950 l0 -950 -972 -2
c-535 -2 -998 0 -1029 3 -30 4 -73 4 -95 0 l-39 -6 2 -60 c0 -33 2 -161 3
-285 1 -124 3 -220 6 -215 3 7 365 8 1071 5 943 -4 1067 -7 1063 -20 -3 -8 -6
-439 -8 -958 l-2 -942 -1023 0 c-562 0 -1043 0 -1069 0 -27 0 -48 -5 -48 -11
0 -5 6 -7 13 -3 9 6 9 5 0 -7 -9 -11 -13 -87 -14 -266 -1 -258 3 -293 39 -293
9 0 613 -1 1342 -1 l1325 0 17 22 c17 20 18 166 19 2778 1 1516 3 2771 5 2788
l2 33 -1311 -3 c-722 -1 -1330 -3 -1352 -5z m12 -578 c-3 -3 -12 -4 -19 -1 -8
3 -5 6 6 6 11 1 17 -2 13 -5z m506 -1 c-13 -2 -33 -2 -45 0 -13 2 -3 4 22 4
25 0 35 -2 23 -4z m1180 0 c-7 -2 -21 -2 -30 0 -10 3 -4 5 12 5 17 0 24 -2 18
-5z m225 0 c-26 -2 -71 -2 -100 0 -29 2 -8 3 47 3 55 0 79 -1 53 -3z m149
-260 c-2 -32 -3 -8 -3 52 0 61 1 87 3 58 2 -29 2 -78 0 -110z m0 -425 c-3 -8
-6 -5 -6 6 -1 11 2 17 5 13 3 -3 4 -12 1 -19z m0 -170 c-2 -13 -4 -3 -4 22 0
25 2 35 4 23 2 -13 2 -33 0 -45z m0 -805 c-3 -10 -5 -2 -5 17 0 19 2 27 5 18
2 -10 2 -26 0 -35z m0 -175 c-2 -18 -4 -6 -4 27 0 33 2 48 4 33 2 -15 2 -42 0
-60z m0 -925 c-2 -27 -3 -5 -3 47 0 52 1 74 3 48 2 -27 2 -69 0 -95z"/>
<path d="M13810 8751 c0 -6 4 -13 10 -16 6 -3 7 1 4 9 -7 18 -14 21 -14 7z"/>
<path d="M14051 7664 c0 -11 3 -14 6 -6 3 7 2 16 -1 19 -3 4 -6 -2 -5 -13z"/>
<path d="M12825 7356 c-33 -7 -72 -18 -87 -24 -40 -17 -88 -65 -98 -101 -5
-18 -6 -119 -3 -225 3 -106 3 -205 -1 -219 -8 -34 -40 -64 -96 -91 -44 -20
-55 -21 -665 -21 -606 -1 -621 -1 -666 -22 -52 -23 -91 -68 -115 -134 -21 -56
-25 -260 -6 -342 l14 -58 731 4 c714 3 734 4 812 25 224 61 402 205 490 397
52 115 57 149 56 397 -2 250 -6 275 -64 336 -71 75 -183 104 -302 78z"/>
<path d="M3829 6430 c-72 -12 -197 -49 -242 -70 -22 -11 -47 -20 -54 -20 -7 0
-13 -4 -13 -10 0 -5 -5 -10 -11 -10 -13 0 -88 -53 -174 -123 -176 -144 -287
-362 -315 -621 -7 -57 -10 -218 -9 -371 5 -445 -6 -677 -33 -741 -40 -91 -93
-128 -229 -160 -121 -29 -170 -61 -221 -143 -31 -52 -33 -61 -37 -163 -3 -101
-2 -110 23 -152 32 -55 91 -86 162 -86 62 0 215 25 242 39 11 6 28 11 37 11
27 0 145 50 217 92 194 112 342 337 374 568 3 25 8 227 10 450 7 676 5 645 40
720 37 79 120 168 189 203 95 47 137 50 581 43 288 -4 428 -3 464 5 66 14 111
54 146 127 24 51 26 69 26 164 0 127 -15 165 -79 211 -39 28 -48 30 -185 38
-178 10 -847 9 -909 -1z"/>
<path d="M5145 6260 c3 -5 8 -10 11 -10 2 0 4 5 4 10 0 6 -5 10 -11 10 -5 0
-7 -4 -4 -10z"/>
<path d="M13420 6130 c0 -5 5 -10 11 -10 5 0 7 5 4 10 -3 6 -8 10 -11 10 -2 0
-4 -4 -4 -10z"/>
<path d="M1770 3991 c0 -5 5 -13 10 -16 6 -3 10 -2 10 4 0 5 -4 13 -10 16 -5
3 -10 2 -10 -4z"/>
<path d="M2904 2816 c23 -18 36 -20 36 -6 0 6 -4 10 -9 10 -5 0 -18 3 -28 6
-16 5 -16 4 1 -10z"/>
<path d="M4244 2413 c3 -27 11 -50 16 -51 6 -2 8 -8 5 -13 -6 -9 13 -79 35
-134 7 -16 14 -41 16 -54 2 -13 8 -29 13 -34 6 -6 11 -18 11 -27 0 -8 18 -51
40 -95 22 -44 40 -85 40 -92 0 -7 5 -13 10 -13 6 0 10 -6 10 -14 0 -8 6 -21
14 -28 7 -8 21 -29 31 -48 9 -18 21 -38 26 -44 5 -6 41 -51 80 -101 40 -49 94
-112 121 -139 26 -27 48 -52 48 -56 0 -4 9 -10 21 -13 11 -3 23 -15 26 -26 3
-12 11 -21 18 -21 6 0 34 -20 61 -45 27 -24 53 -45 58 -45 5 0 19 -12 32 -27
13 -16 24 -24 24 -19 0 5 9 -1 20 -14 11 -13 20 -20 20 -16 0 7 76 -33 120
-64 30 -20 113 -60 126 -60 5 0 14 -8 21 -19 8 -13 20 -17 40 -14 22 4 25 2
13 -6 -13 -10 -13 -11 0 -12 44 -4 59 -8 105 -24 64 -22 227 -62 285 -69 25
-3 77 -11 115 -17 65 -10 370 -6 435 5 102 19 232 47 251 55 13 5 57 17 97 27
39 10 72 21 72 25 0 4 13 10 29 14 16 3 40 15 52 26 13 11 29 17 36 15 7 -3
13 -2 13 2 0 9 49 32 68 32 7 0 10 5 7 10 -3 6 -1 10 4 10 6 0 11 5 11 10 0 6
-33 -7 -72 -29 -40 -21 -98 -46 -128 -56 -30 -10 -62 -20 -70 -23 -8 -3 -19
-6 -25 -7 -5 0 -16 -4 -24 -9 -8 -5 -16 -4 -21 4 -5 9 -9 9 -14 1 -4 -6 -4
-11 1 -11 26 -2 -68 -30 -158 -49 -176 -36 -288 -43 -428 -26 -45 5 -70 4 -88
-6 -17 -9 -26 -10 -31 -2 -4 6 -25 11 -46 11 -72 0 -187 25 -182 39 4 10 -1
12 -18 7 -13 -3 -43 0 -67 7 -24 7 -49 13 -56 15 -97 19 -333 126 -333 152 0
11 -3 13 -8 5 -5 -9 -25 -2 -70 25 -43 25 -58 39 -49 45 8 6 6 7 -6 3 -50 -16
-470 375 -452 421 2 8 1 12 -4 8 -14 -8 -133 167 -127 187 2 10 -1 16 -6 15
-33 -7 -198 428 -198 522 0 12 -5 21 -11 21 -8 0 -10 -15 -5 -47z"/>
<path d="M8015 1600 c4 -6 11 -8 16 -5 14 9 11 15 -7 15 -8 0 -12 -5 -9 -10z"/>
<path d="M8036 1558 c3 -12 13 -28 20 -36 8 -7 14 -20 14 -28 0 -8 5 -14 11
-14 5 0 7 -4 4 -10 -3 -5 1 -10 9 -10 9 0 16 -6 16 -14 0 -8 25 -40 56 -72 84
-85 184 -158 184 -134 0 5 -4 10 -9 10 -4 0 -20 10 -34 23 -14 12 -59 51 -101
87 -41 36 -75 68 -75 73 -1 4 -14 25 -30 47 -15 21 -34 53 -41 70 -14 34 -35
41 -24 8z"/>
<path d="M8908 1033 c7 -3 16 -2 19 1 4 3 -2 6 -13 5 -11 0 -14 -3 -6 -6z"/>
</g>
</svg>
