<svg xmlns="http://www.w3.org/2000/svg" width="128" height="128" viewBox="0 0 128 128">
    <g fill="#bebebe">
        <path d="M12 20a8 8 0 0 0-8 8v72a8 8 0 0 0 8 8h104a8 8 0 0 0 8-8V28a8 8 0 0 0-8-8H12zm4 12h96v64H16V32z"/>
        
        <rect x="16" y="32" width="96" height="10" rx="1"/>

        <path d="M82 46v6h12.76L77.5 69.26l4.24 4.24L99 56.24V69h6V46H82z"/>

        <path d="M38 60v18.76l-5.76-5.76-4.24 4.24L42 91.24l14-14-4.24-4.24-5.76 5.76V60h-8z"/>

        <path d="M88 88h-16v-4h16v-6l10 8-10 8v-6z"/>
    </g>
</svg>

